<svg xmlns="http://www.w3.org/2000/svg" width="20" height="12" viewBox="0 0 20 12">
  <defs>
    <style>
      .cls-1 {
        fill: #fff;
      }
    </style>
  </defs>
  <path id="graduation-cap-solid" class="cls-1" d="M19.453,66.785l-8.717-2.678a2.5,2.5,0,0,0-1.462,0L.557,66.785a.736.736,0,0,0,0,1.425l1.52.467a2.463,2.463,0,0,0-.559,1.466.964.964,0,0,0-.08,1.657l-.8,3.59A.5.5,0,0,0,1.128,76H2.881a.5.5,0,0,0,.488-.608l-.8-3.59a.962.962,0,0,0-.056-1.641,1.474,1.474,0,0,1,.647-1.147l6.112,1.878a2.5,2.5,0,0,0,1.462,0l8.717-2.678A.736.736,0,0,0,19.453,66.785Zm-8.423,5.059a3.5,3.5,0,0,1-2.05,0L4.448,70.452,4,74c0,1.1,2.686,2,6,2s6-.9,6-2l-.443-3.546Z" transform="translate(-0.005 -63.997)"/>
</svg>
