<svg xmlns="http://www.w3.org/2000/svg" width="34" height="33.998" viewBox="0 0 34 33.998">
  <defs>
    <style>
      .cls-1 {
        fill: #fff;
      }
    </style>
  </defs>
  <path id="icon_call" class="cls-1" d="M21677.484,9973.882s-1.363-.667-2.393-1.282a49.2,49.2,0,0,1-8.732-6.942,48.538,48.538,0,0,1-6.939-8.727c-.623-1.047-1.287-2.405-1.287-2.405a1.094,1.094,0,0,1,.256-1.361l4.965-4.167a1.107,1.107,0,0,1,1.49.063l3.955,3.955a1.117,1.117,0,0,1,.092,1.467l-1.668,2.071a1.088,1.088,0,0,0,.008,1.395,28.746,28.746,0,0,0,6.832,6.837,1.105,1.105,0,0,0,1.4.013l2.076-1.663a1.09,1.09,0,0,1,1.461.073l3.957,3.965a1.087,1.087,0,0,1,.066,1.482l-4.174,4.969a1.1,1.1,0,0,1-1.367.259Zm.508-19.857a7.053,7.053,0,0,0-3.881-1.979l.271-1.654a8.764,8.764,0,0,1,7.248,7.252l-1.65.258A6.986,6.986,0,0,0,21677.992,9954.024Zm3.73-3.724a12.312,12.312,0,0,0-6.789-3.456l.258-1.639a13.951,13.951,0,0,1,11.633,11.612l-1.66.266A12.163,12.163,0,0,0,21681.723,9950.3Zm3.707-3.708a17.523,17.523,0,0,0-9.674-4.932l.258-1.645A19.206,19.206,0,0,1,21692,9956l-1.641.26A17.561,17.561,0,0,0,21685.43,9946.593Z" transform="translate(-21658 -9940.017)"/>
</svg>
