<svg xmlns="http://www.w3.org/2000/svg" width="16" height="16" viewBox="0 0 16 16">
  <defs>
    <style>
      .cls-1 {
        fill: #fbbe13;
      }
    </style>
  </defs>
  <path id="Icon" class="cls-1" d="M15.417,5.513,10.183,5.5,8.533.415A.565.565,0,0,0,7.975,0a.578.578,0,0,0-.549.425L5.881,5.5l-5.3.014a.578.578,0,0,0-.553.42.617.617,0,0,0,.208.682l4.145,3.2L2.757,15.2a.618.618,0,0,0,.214.68A.569.569,0,0,0,3.314,16a.559.559,0,0,0,.338-.116l4.37-3.227,4.326,3.225a.552.552,0,0,0,.683,0,.618.618,0,0,0,.214-.679L11.617,9.818l4.144-3.2a.619.619,0,0,0,.208-.682A.578.578,0,0,0,15.417,5.513Z" transform="translate(0 0)"/>
</svg>
