<svg id="icon-王冠" xmlns="http://www.w3.org/2000/svg" width="26.667" height="20" viewBox="0 0 26.667 20">
  <defs>
    <style>
      .cls-1 {
        fill: #f06065;
      }
    </style>
  </defs>
  <path id="パス_10570" data-name="パス 10570" class="cls-1" d="M140.644,171.06a1.44,1.44,0,0,0-1.429,1.451,1.456,1.456,0,0,0,.3.891l-5.321,3.622-4.871-6.3a1.429,1.429,0,1,0-1.173,0l-4.871,6.3-5.321-3.622a1.456,1.456,0,0,0,.3-.891,1.429,1.429,0,1,0-1.429,1.45,1.4,1.4,0,0,0,.481-.086l2.274,10.077h18.3l2.274-10.077a1.4,1.4,0,0,0,.481.086,1.451,1.451,0,0,0,0-2.9Z" transform="translate(-115.406 -167.952)"/>
  <rect id="長方形_4759" data-name="長方形 4759" class="cls-1" width="18.667" height="2.667" transform="translate(4 17.333)"/>
</svg>
