<svg xmlns="http://www.w3.org/2000/svg" width="21" height="21" viewBox="0 0 21 21">
  <defs>
    <style>
      .cls-1 {
        fill: #fff;
        stroke: rgba(0,0,0,0);
      }
    </style>
  </defs>
  <path id="パス_10569" data-name="パス 10569" class="cls-1" d="M-689.8-2507h-14.4a2.8,2.8,0,0,1-2.8-2.8v-14.4a2.8,2.8,0,0,1,2.8-2.8h14.4a2.8,2.8,0,0,1,2.8,2.8v14.4A2.8,2.8,0,0,1-689.8-2507Zm-9.475-3.1h0l.208,1.1,2.081-.293-1.279-5.977-1.972.174.531,2.676-2.3.26v-3.727h4.961V-2525h-7.17v13.029l-.783.086.266,2.567,5.458-.784ZM-689-2525l-7.061.038V-2509h2.123v-13.684h2.9v8.205h-1.744v2.579H-689V-2525Zm-10.251,7.561h-2.715v-2.216h2.715v2.217Zm0-3.8h-2.715v-2.216h2.715v2.215Z" transform="translate(707.5 2527.5)"/>
</svg>
