<svg xmlns="http://www.w3.org/2000/svg" width="29" height="29" viewBox="0 0 29 29">
  <defs>
    <style>
      .cls-1 {
        fill: #4a4a4a;
        stroke: rgba(0,0,0,0);
      }
    </style>
  </defs>
  <path id="パス_22926" data-name="パス 22926" class="cls-1" d="M2206.819-116.119v-.561a.935.935,0,0,1,.906-.962.935.935,0,0,1,.906.961v.562a.935.935,0,0,1-.906.962A.935.935,0,0,1,2206.819-116.119Zm24.251-1.692a.5.5,0,0,1-.48-.51V-119.6a.5.5,0,0,0-.48-.51h-.943a.5.5,0,0,0-.48.51v1.282a.5.5,0,0,1-.481.51h-3.782a.5.5,0,0,1-.481-.51v-3.46a.5.5,0,0,0-.48-.51h-6.5a.5.5,0,0,1-.48-.51v-2.3a.5.5,0,0,1,.48-.51h9.064a.5.5,0,0,0,.48-.51v-7.38a.5.5,0,0,1,.48-.51h5.807a.5.5,0,0,1,.48.51v15.184a.5.5,0,0,1-.48.51Zm-13.24,0a1.391,1.391,0,0,1-1.348-1.431,1.391,1.391,0,0,1,1.348-1.431h3.241a1.391,1.391,0,0,1,1.348,1.431,1.391,1.391,0,0,1-1.348,1.431Zm-7.085,0a.5.5,0,0,1-.481-.51v-3.827a.5.5,0,0,0-.48-.51h-.774a.5.5,0,0,1-.48-.51v-1.937a.5.5,0,0,1,.48-.51h5.549a.5.5,0,0,1,.48.51v6.784a.5.5,0,0,1-.48.51Zm16.328-17.676a.5.5,0,0,1-.481-.51v-3.674a.5.5,0,0,1,.481-.51h.157a.5.5,0,0,0,.481-.51v-1.956a.5.5,0,0,1,.48-.51h6.147a.5.5,0,0,1,.48.51v5.28a.5.5,0,0,1-.48.51H2229.4a.5.5,0,0,0-.481.51v.35a.5.5,0,0,1-.48.51Z" transform="translate(-2206.319 143.658)"/>
</svg>
