<svg xmlns="http://www.w3.org/2000/svg" width="20" height="20" viewBox="0 0 20 20">
  <defs>
    <style>
      .cls-1 {
        fill: #fff;
      }
    </style>
  </defs>
  <g id="アイコン" transform="translate(0 0)">
    <path id="前面オブジェクトで型抜き_1" data-name="前面オブジェクトで型抜き 1" class="cls-1" d="M2135-4578h-12a4,4,0,0,1-4-4v-12a4,4,0,0,1,4-4h12a4,4,0,0,1,4,4v12A4,4,0,0,1,2135-4578Zm-8.812-5.2h0v2.1a.1.1,0,0,0,.1.094h3.881a.1.1,0,0,0,.1-.094v-10.494h5.628a.1.1,0,0,0,.1-.1v-2.2a.1.1,0,0,0-.1-.095h-1.1l-.155-.942a.1.1,0,0,0-.1-.081h-2.109a.106.106,0,0,0-.077.034.089.089,0,0,0-.023.077l.164.912h-2.222v-.928a.1.1,0,0,0-.1-.095h-2.307a.1.1,0,0,0-.1.095v.928H2122.1a.1.1,0,0,0-.1.095v2.2a.1.1,0,0,0,.1.1h5.658v8.186h-1.139l.263-.126a.1.1,0,0,0,.055-.084v-2.594a.1.1,0,0,0-.05-.082.1.1,0,0,0-.052-.014.1.1,0,0,0-.048.012l-4.736,2.349a.1.1,0,0,0-.054.084v2.5a.092.092,0,0,0,.048.081.107.107,0,0,0,.054.014.091.091,0,0,0,.046-.011l4.036-1.924Zm4.594-7.669a.1.1,0,0,0-.082.037.09.09,0,0,0-.017.082l.435,1.548a.1.1,0,0,0,0,.055l2.24,7.874a.1.1,0,0,0,.1.07h2.445a.1.1,0,0,0,.081-.038.084.084,0,0,0,.017-.083l-1.663-5.39,1.576-1.312a.094.094,0,0,0,.044-.079v-2.608a.094.094,0,0,0-.059-.086.1.1,0,0,0-.042-.009.1.1,0,0,0-.067.023l-2.171,1.734-.523-1.748a.1.1,0,0,0-.1-.069Zm-8.327-.139a.109.109,0,0,0-.06.019.1.1,0,0,0-.043.078v2.319a.1.1,0,0,0,.071.09l2.428.743a.107.107,0,0,0,.044.025l1.913.575a.1.1,0,0,0,.032,0,.117.117,0,0,0,.06-.017.1.1,0,0,0,.042-.077v-2.334a.1.1,0,0,0-.07-.091l-4.385-1.328A.093.093,0,0,0,2122.454-4591Z" transform="translate(-2119 4598)"/>
  </g>
</svg>
