<svg xmlns="http://www.w3.org/2000/svg" width="16" height="16" viewBox="0 0 16 16">
  <defs>
    <style>
      .cls-1 {
        fill: #fff;
      }
    </style>
  </defs>
  <path id="パス_22939" data-name="パス 22939" class="cls-1" d="M627.31,321.621h2.371v2.37H627.31Zm-3.259,1.986a4.236,4.236,0,1,1-4.236,4.236A4.236,4.236,0,0,1,624.051,323.607Zm0,.789a3.447,3.447,0,1,0,3.446,3.447A3.451,3.451,0,0,0,624.051,324.4Zm0,1.486a1.961,1.961,0,1,1-1.961,1.961A1.961,1.961,0,0,1,624.051,325.881Zm5.539,9.369H618.513a2.464,2.464,0,0,1-2.462-2.462V321.712a2.464,2.464,0,0,1,2.462-2.462h11.077a2.464,2.464,0,0,1,2.462,2.462v11.077A2.464,2.464,0,0,1,629.589,335.25Zm-11.077-14.769a1.232,1.232,0,0,0-1.231,1.231v11.077a1.232,1.232,0,0,0,1.231,1.231h11.077a1.232,1.232,0,0,0,1.231-1.231V321.712a1.232,1.232,0,0,0-1.231-1.231Z" transform="translate(-616.051 -319.25)"/>
</svg>
