<svg xmlns="http://www.w3.org/2000/svg" width="22.293" height="28" viewBox="0 0 22.293 28">
  <defs>
    <style>
      .cls-1 {
        fill: #4a4a4a;
      }
    </style>
  </defs>
  <path id="パス_22927" data-name="パス 22927" class="cls-1" d="M23180.807,23243l-.824-1.105H23167.1l-.83,1.105h-2.76l3.742-4.336h.633v-.037h11.322v.037h.613l3.74,4.336Zm-12.918-2.172h11.291l-.848-1.131h-9.59Zm-1.678-3.213a3.657,3.657,0,0,1-3.816-3.461v-14.143c0-2.172,2.5-5.012,11.148-5.012s11.145,2.84,11.145,5.012v14.143a3.652,3.652,0,0,1-3.816,3.461Zm11.895-4.111a1.218,1.218,0,1,0,1.213-1.1A1.163,1.163,0,0,0,23178.105,23233.5Zm-11.553,0a1.218,1.218,0,1,0,1.215-1.1A1.161,1.161,0,0,0,23166.553,23233.5Zm7.84-5.416h6.76v-5.369h-6.76Zm-8.174,0h6.471v-5.369h-6.471Zm2.314-9.092a.923.923,0,0,0,.967.879h8.084a.883.883,0,1,0,0-1.758h-8.084A.923.923,0,0,0,23168.533,23219Z" transform="translate(-23162.395 -23215)"/>
</svg>
