<?xml version="1.0" encoding="utf-8"?>
<!-- Generator: Adobe Illustrator 23.0.4, SVG Export Plug-In . SVG Version: 6.00 Build 0)  -->
<svg version="1.1" id="レイヤー_1" xmlns="http://www.w3.org/2000/svg" xmlns:xlink="http://www.w3.org/1999/xlink" x="0px"
	 y="0px" viewBox="0 0 24 24" style="enable-background:new 0 0 24 24;" xml:space="preserve">
<style type="text/css">
	.st0{fill:none;}
	.st1{fill:#040000;}
</style>
<g>
	<polygon class="st0" points="16.8,14.9 17.3,14.3 21.7,9.9 15.7,9 14.9,8.9 14.6,8.1 12,2.6 9.4,8.1 9.1,8.9 8.3,9 2.3,9.9 
		6.7,14.3 7.2,14.9 7.1,15.6 6.1,21.8 11.3,18.9 12,18.5 12.7,18.9 17.9,21.8 16.9,15.6 	"/>
	<polygon class="st0" points="16,7.5 14.5,4.4 16,7.5 	"/>
	<path class="st0" d="M4.9,24c-0.4,0-0.6-0.4-0.6-0.8c0-0.1,0-0.2,0-0.3l1.2-7.6L1,10.7l4.6,4.7l-1.2,7.6c0,0.1,0,0.2,0,0.3
		C4.3,23.6,4.5,24,4.9,24c0.2,0,0.4-0.1,0.6-0.2l6.3-3.5l-6.3,3.5C5.4,23.9,5.2,24,4.9,24z"/>
	<path class="st0" d="M12.4,0.2c0.1,0.1,0.1,0.2,0.2,0.3C12.6,0.4,12.5,0.3,12.4,0.2z"/>
	<path class="st0" d="M24,9.3c0-0.2-0.1-0.4-0.3-0.5C23.9,8.9,24,9.1,24,9.3c0,0.3-0.2,0.5-0.4,0.7l-5.2,5.4l1.2,7.6
		c0,0.1,0,0.2,0,0.3c0,0.4-0.2,0.8-0.6,0.8c-0.1,0-0.2,0-0.3-0.1c0.1,0,0.2,0.1,0.3,0.1c0.4,0,0.6-0.4,0.6-0.8c0-0.1,0-0.2,0-0.3
		l-1.2-7.6l5.2-5.4C23.8,9.8,24,9.6,24,9.3z"/>
	<path class="st0" d="M0.1,9.7C0.1,9.6,0,9.4,0,9.3C0,9.4,0,9.6,0.1,9.7z"/>
	<path class="st0" d="M0.4,10L0.4,10C0.3,9.9,0.2,9.8,0.1,9.7C0.2,9.8,0.3,9.9,0.4,10z"/>
	<path class="st1" d="M19.6,23.2c0-0.1,0-0.2,0-0.3l-1.2-7.6l5.2-5.4C23.8,9.8,24,9.6,24,9.3c0-0.2-0.1-0.4-0.3-0.5
		c-0.2-0.1-0.4-0.2-0.5-0.2L16,7.5l0,0h0l-1.5-3.1l-1.8-3.8c0,0-0.1-0.1-0.1-0.1c-0.1-0.1-0.1-0.2-0.2-0.3C12.3,0.1,12.2,0,12,0
		c-0.3,0-0.6,0.3-0.7,0.6L8,7.5L0.8,8.6C0.4,8.7,0,8.8,0,9.3c0,0,0,0,0,0c0,0.1,0.1,0.3,0.1,0.4c0,0,0,0,0,0C0.2,9.8,0.3,9.9,0.4,10
		L1,10.7l4.6,4.7l-1.2,7.6c0,0.1,0,0.2,0,0.3c0,0.4,0.2,0.8,0.6,0.8c0.2,0,0.4-0.1,0.6-0.2l6.3-3.5l0.2-0.1l6.5,3.6
		c0.1,0.1,0.2,0.1,0.3,0.1c0.1,0,0.2,0,0.3,0.1C19.5,24,19.6,23.6,19.6,23.2z M12.7,18.9L12,18.5l-0.7,0.4l-5.2,2.9l1-6.2l0.1-0.8
		l-0.5-0.5L2.3,9.9L8.3,9l0.8-0.1l0.3-0.7L12,2.6l2.6,5.5l0.3,0.7L15.7,9l5.9,0.9l-4.3,4.4l-0.5,0.5l0.1,0.7l1,6.2L12.7,18.9z"/>
</g>
</svg>
