<svg xmlns="http://www.w3.org/2000/svg" width="59.482" height="17.824" viewBox="0 0 59.482 17.824">
  <defs>
    <style>
      .cls-1 {
        fill: #f17074;
      }
    </style>
  </defs>
  <path id="パス_1615" data-name="パス 1615" class="cls-1" d="M14868.441,24473.824c-.221,0-.72,0-1.479-.021a.156.156,0,0,1-.092-.037.092.092,0,0,1-.038-.088l.224-3.348a.122.122,0,0,1,.109-.111,4.818,4.818,0,0,0,.869-.053c.516-.092.85-.537.961-1.275a17.725,17.725,0,0,0,.182-1.811c.039-1.4.059-2.123.059-2.217a1.085,1.085,0,0,0-.24-.738.785.785,0,0,0-.574-.164c-.167,0-.4,0-.719.014a.12.12,0,0,0-.111.094c-.129.592-.221,1.053-.314,1.422a55.264,55.264,0,0,1-2.365,8.26.129.129,0,0,1-.107.074l-3.807-.021a.107.107,0,0,1-.094-.053.126.126,0,0,1-.018-.111c.813-2.125,1.4-3.785,1.757-4.969.423-1.367.829-2.885,1.216-4.527.02-.037,0-.057-.016-.092a.144.144,0,0,0-.094-.037l-2-.039a.127.127,0,0,1-.093-.035.1.1,0,0,1-.037-.092l.24-3.529a.117.117,0,0,1,.109-.105l2.57-.043a.112.112,0,0,0,.109-.094c.186-1.105.332-2.25.461-3.355a.108.108,0,0,1,.113-.113h3.547a.146.146,0,0,1,.089.037c.021.018.021.057.021.09-.147,1.055-.316,2.166-.52,3.289a.086.086,0,0,0,.02.092.134.134,0,0,0,.094.039h1.625a3.148,3.148,0,0,1,1.681.332,2.578,2.578,0,0,1,.923,1.236c.279.756.318,2.586.131,5.43a21.193,21.193,0,0,1-.647,4.344,2.9,2.9,0,0,1-2.214,2.219,8.839,8.839,0,0,1-1.5.109Zm-21.926-.041a.153.153,0,0,1-.094-.033.1.1,0,0,1-.037-.094l.24-3.656a.118.118,0,0,1,.113-.111l5.832.018a6.817,6.817,0,0,0,2.7-.369,1.391,1.391,0,0,0,.646-.609,1.814,1.814,0,0,0,.276-.867,1.362,1.362,0,0,0-.519-1.311,1.693,1.693,0,0,0-1.014-.279,4.968,4.968,0,0,0-2.184.518,5.187,5.187,0,0,0-1.824,1.533.142.142,0,0,1-.094.033l-3.9-.014a.1.1,0,0,1-.091-.055.127.127,0,0,1-.019-.115l1.994-6.441a.125.125,0,0,0-.018-.113.116.116,0,0,0-.092-.059l-2.828.023a.139.139,0,0,1-.092-.041.1.1,0,0,1-.038-.09l.22-3.455a.124.124,0,0,1,.113-.111l3.713-.074a.113.113,0,0,0,.109-.09l.371-1.625a.109.109,0,0,1,.109-.092l3.9.014a.1.1,0,0,1,.094.057c.018.037.037.074.018.111l-.424,1.457a.122.122,0,0,0,.018.113.094.094,0,0,0,.092.055l6.779-.016a.157.157,0,0,1,.111.051.114.114,0,0,1,.035.1l-.236,3.471a.121.121,0,0,1-.111.111l-7.76.076a.1.1,0,0,0-.111.072l-.665,2.254a.107.107,0,0,0,.038.127.088.088,0,0,0,.072.023c.037,0,.057,0,.076-.023a5.9,5.9,0,0,1,3.546-1.014,4.318,4.318,0,0,1,4.007,1.85,5.267,5.267,0,0,1,.686,3.158,6.182,6.182,0,0,1-.943,2.994,5.357,5.357,0,0,1-3.842,2.359,20.46,20.46,0,0,1-3.049.2Zm32.141-.018.26-3.451h3.307l-.26,3.451Zm-35.208-.016a5.538,5.538,0,0,1-3.529-3.932,17.39,17.39,0,0,1-.406-4.824.279.279,0,0,0-.071-.166.24.24,0,0,0-.168-.076h-.5a.234.234,0,0,0-.219.205c-.15,1.441-.3,2.584-.447,3.4a6.677,6.677,0,0,1-2.361,4.416,10.842,10.842,0,0,1-1.664.945h-.037c-.02,0-.02-.02-.037-.02a.143.143,0,0,1-.035-.076l.035-.607a.257.257,0,0,0-.129-.223.229.229,0,0,0-.113-.02.208.208,0,0,0-.146.057,3.311,3.311,0,0,1-1.107.648,4.574,4.574,0,0,1-.85.125.08.08,0,0,1-.074-.072c-.073-.941-.146-1.773-.186-2.494a.062.062,0,0,1,.02-.055.073.073,0,0,1,.055-.018h.352a.218.218,0,0,0,.22-.205l.114-1.5a.261.261,0,0,0-.057-.164.2.2,0,0,0-.164-.076l-5.581-.018a.072.072,0,0,1-.056-.018.075.075,0,0,1-.018-.057l.943-12.857a.07.07,0,0,1,.072-.07l7.977.029a.066.066,0,0,1,.061.023.077.077,0,0,1,.016.055l-.182,2.625a.081.081,0,0,1-.074.072h-1.166a.225.225,0,0,0-.223.2l-.035.443a.265.265,0,0,0,.055.166.212.212,0,0,0,.168.078h1.107a.081.081,0,0,1,.055.014.071.071,0,0,1,.021.061l-.168,2.285a.08.08,0,0,1-.073.074h-1.165a.227.227,0,0,0-.225.2l-.035.48a.248.248,0,0,0,.059.168.2.2,0,0,0,.164.072h1.107a.064.064,0,0,1,.057.02.069.069,0,0,1,.018.057l-.168,2.256a.075.075,0,0,1-.074.068h-1.162a.223.223,0,0,0-.221.205l-.035.482a.268.268,0,0,0,.053.166.207.207,0,0,0,.168.07h1.271a.064.064,0,0,1,.057.021.062.062,0,0,1,.02.055l-.167,2.291a.211.211,0,0,0,.167.24h.057a.221.221,0,0,0,.2-.131,4.224,4.224,0,0,0,.355-1.35l.83-11.412a.082.082,0,0,1,.074-.078l8.443.016a.058.058,0,0,1,.053.023.066.066,0,0,1,.02.055l-.465,6.355a2.326,2.326,0,0,1-.57,1.535,3.11,3.11,0,0,1-1.016.627.181.181,0,0,0-.129.186,10.881,10.881,0,0,0,.072,2.678,4.266,4.266,0,0,0,1.166,2.088.074.074,0,0,1,.016.053l-.295,4.049c0,.018-.018.037-.037.053,0,.02-.016.02-.037.02Zm-13.948-8.133-.037.467a.254.254,0,0,0,.055.166.2.2,0,0,0,.169.07h.647a.221.221,0,0,0,.221-.2l.035-.459a.277.277,0,0,0-.053-.168.211.211,0,0,0-.168-.07h-.648A.222.222,0,0,0,14829.5,24465.617Zm.24-3.3-.037.482a.259.259,0,0,0,.057.166.2.2,0,0,0,.168.072h.645a.219.219,0,0,0,.221-.2l.039-.482a.261.261,0,0,0-.057-.164.2.2,0,0,0-.168-.074h-.645A.222.222,0,0,0,14829.74,24462.314Zm9.33-2.883-.15,1.941a.247.247,0,0,0,.06.164.184.184,0,0,0,.165.074h1.457a.222.222,0,0,0,.223-.2l.148-1.937a.257.257,0,0,0-.057-.164.193.193,0,0,0-.164-.078h-1.461A.223.223,0,0,0,14839.07,24459.432Zm-9.092-.461-.033.443a.251.251,0,0,0,.053.164.2.2,0,0,0,.168.078h.646a.224.224,0,0,0,.223-.205l.037-.443a.272.272,0,0,0-.059-.166.2.2,0,0,0-.164-.074h-.646A.223.223,0,0,0,14829.979,24458.971Zm-.089,14.725a.144.144,0,0,1-.149-.133c-.092-1.289-.146-2.568-.168-3.77a.211.211,0,0,1,.038-.107.289.289,0,0,1,.11-.035h1.129a.142.142,0,0,1,.148.129c.016.2.037.424.037.666.053.832.107,1.863.2,3.082a.305.305,0,0,1-.039.111.151.151,0,0,1-.111.057Zm-1.774,0a.158.158,0,0,1-.113-.039.292.292,0,0,1-.035-.109c0-.406,0-1.035.019-1.848,0-.83.017-1.48.017-1.92a.149.149,0,0,1,.15-.15h1.09a.161.161,0,0,1,.146.15v.57l.019,1.461c0,.756.021,1.346.021,1.736a.2.2,0,0,1-.039.109.241.241,0,0,1-.108.039Zm-1.977,0a.127.127,0,0,1-.111-.057c-.035-.02-.035-.076-.035-.111.129-.9.275-2.162.461-3.768a.158.158,0,0,1,.148-.131h1.107a.1.1,0,0,1,.09.057.123.123,0,0,1,.041.107c-.058.557-.111,1.186-.187,1.941-.057.627-.129,1.238-.184,1.828a.161.161,0,0,1-.148.133Zm-1.848,0h-.018l-.147-.018a.116.116,0,0,1-.112-.059.235.235,0,0,1-.018-.107c.295-1.238.553-2.5.795-3.77a.161.161,0,0,1,.147-.113h1.106a.147.147,0,0,1,.115.057c.035.035.035.074.035.133-.187,1.254-.424,2.525-.686,3.764a.16.16,0,0,1-.145.113Zm55.068-4.342.277-12.691,3.842.018-1.568,12.674Zm-5.209-.02a.134.134,0,0,1-.094-.037.105.105,0,0,1-.033-.092c.033-.461.051-.812.071-1.055a34.114,34.114,0,0,0,.073-5.609,6.88,6.88,0,0,0-.666-2.371c-.129-.254-.3-.553-.516-.922a.109.109,0,0,1,0-.109.107.107,0,0,1,.093-.061h3.511a.111.111,0,0,1,.092.061,7.893,7.893,0,0,1,1.086,3.047,25.537,25.537,0,0,1,0,4.857c-.014.186-.072.9-.164,2.18a.116.116,0,0,1-.109.111Z" transform="translate(-14823.996 -24456.001)"/>
</svg>
