<svg xmlns="http://www.w3.org/2000/svg" xmlns:xlink="http://www.w3.org/1999/xlink"><symbol viewBox="0 0 10.121 17.414" id="ico-arrow"><defs/><path id="aパス_22912" data-name="パス 22912" class="acls-1" d="M296.516 1065.7l8 8-8 8" transform="translate(-295.809 -1064.995)"/></symbol><symbol viewBox="0 0 34 33.998" id="ico-call"><defs/><path id="bicon_call" class="bcls-1" d="M21677.484 9973.882s-1.363-.667-2.393-1.282a49.2 49.2 0 01-8.732-6.942 48.538 48.538 0 01-6.939-8.727 39.844 39.844 0 01-1.287-2.405 1.094 1.094 0 01.256-1.361l4.965-4.167a1.107 1.107 0 011.49.063l3.955 3.955a1.117 1.117 0 01.092 1.467l-1.668 2.071a1.088 1.088 0 00.008 1.395 28.746 28.746 0 006.832 6.837 1.105 1.105 0 001.4.013l2.076-1.663a1.09 1.09 0 011.461.073l3.957 3.965a1.087 1.087 0 01.066 1.482l-4.174 4.969a1.1 1.1 0 01-1.367.259zm.508-19.857a7.053 7.053 0 00-3.881-1.979l.271-1.654a8.764 8.764 0 017.248 7.252l-1.65.258a6.986 6.986 0 00-1.988-3.878zm3.73-3.724a12.312 12.312 0 00-6.789-3.456l.258-1.639a13.951 13.951 0 0111.633 11.612l-1.66.266a12.163 12.163 0 00-3.441-6.784zm3.707-3.708a17.523 17.523 0 00-9.674-4.932l.258-1.645A19.206 19.206 0 0121692 9956l-1.641.26a17.561 17.561 0 00-4.929-9.667z" transform="translate(-21658 -9940.017)"/></symbol><symbol viewBox="0 0 16 16" id="ico-camera"><defs/><path id="cパス_22939" data-name="パス 22939" class="ccls-1" d="M627.31 321.621h2.371v2.37h-2.371zm-3.259 1.986a4.236 4.236 0 11-4.236 4.236 4.236 4.236 0 014.236-4.236zm0 .789a3.447 3.447 0 103.446 3.447 3.451 3.451 0 00-3.446-3.443zm0 1.486a1.961 1.961 0 11-1.961 1.961 1.961 1.961 0 011.961-1.962zm5.539 9.369h-11.077a2.464 2.464 0 01-2.462-2.462v-11.077a2.464 2.464 0 012.462-2.462h11.077a2.464 2.464 0 012.462 2.462v11.077a2.464 2.464 0 01-2.463 2.461zm-11.077-14.769a1.232 1.232 0 00-1.231 1.231v11.077a1.232 1.232 0 001.231 1.231h11.077a1.232 1.232 0 001.231-1.231v-11.078a1.232 1.232 0 00-1.231-1.231z" transform="translate(-616.051 -319.25)"/></symbol><symbol viewBox="0 0 20 20" id="ico-close-accordion"><defs><clipPath id="dclip-path"><path class="dcls-1" d="M0 0h20v20H0z"/></clipPath></defs><g id="d開く" class="dcls-2"><g id="d長方形_2457" data-name="長方形 2457" class="dcls-3"><rect class="dcls-5" width="20" height="20" rx="3"/><rect class="dcls-1" x=".5" y=".5" width="19" height="19" rx="2.5"/></g><path id="d長方形_2456" data-name="長方形 2456" class="dcls-4" transform="translate(4 9)" d="M0 0h12v2H0z"/></g></symbol><symbol id="ico-crown" viewBox="0 0 26.667 20"><defs/><path id="eパス_10570" data-name="パス 10570" class="ecls-1" d="M140.644 171.06a1.44 1.44 0 00-1.429 1.451 1.456 1.456 0 00.3.891l-5.321 3.622-4.871-6.3a1.429 1.429 0 10-1.173 0l-4.871 6.3-5.321-3.622a1.456 1.456 0 00.3-.891 1.429 1.429 0 10-1.429 1.45 1.4 1.4 0 00.481-.086l2.274 10.077h18.3l2.274-10.077a1.4 1.4 0 00.481.086 1.451 1.451 0 000-2.9z" transform="translate(-115.406 -167.952)"/><path id="e長方形_4759" data-name="長方形 4759" class="ecls-1" transform="translate(4 17.333)" d="M0 0h18.667v2.667H0z"/></symbol><symbol viewBox="0 0 20 12" id="ico-hat"><defs/><path id="fgraduation-cap-solid" class="fcls-1" d="M19.453 66.785l-8.717-2.678a2.5 2.5 0 00-1.462 0L.557 66.785a.736.736 0 000 1.425l1.52.467a2.463 2.463 0 00-.559 1.466.964.964 0 00-.08 1.657l-.8 3.59a.5.5 0 00.49.61h1.753a.5.5 0 00.488-.608l-.8-3.59a.962.962 0 00-.056-1.641 1.474 1.474 0 01.647-1.147l6.112 1.878a2.5 2.5 0 001.462 0l8.717-2.678a.736.736 0 00.002-1.429zm-8.423 5.059a3.5 3.5 0 01-2.05 0l-4.532-1.392L4 74c0 1.1 2.686 2 6 2s6-.9 6-2l-.443-3.546z" transform="translate(-.005 -63.997)"/></symbol><symbol id="ico-hdr-star" viewBox="0 0 24 24" xml:space="preserve"><path class="gst0" d="M16.8 14.9l.5-.6 4.4-4.4-6-.9-.8-.1-.3-.8L12 2.6 9.4 8.1l-.3.8-.8.1-6 .9 4.4 4.4.5.6-.1.7-1 6.2 5.2-2.9.7-.4.7.4 5.2 2.9-1-6.2zM16 7.5l-1.5-3.1L16 7.5z"/><path class="gst0" d="M4.9 24c-.4 0-.6-.4-.6-.8v-.3l1.2-7.6L1 10.7l4.6 4.7L4.4 23v.3c-.1.3.1.7.5.7.2 0 .4-.1.6-.2l6.3-3.5-6.3 3.5c-.1.1-.3.2-.6.2zM12.4.2c.1.1.1.2.2.3 0-.1-.1-.2-.2-.3zM24 9.3c0 .3-.2.5-.4.7l-5.2 5.4 1.2 7.6v.3c0 .4-.2.8-.6.8-.1 0-.2 0-.3-.1.1 0 .2.1.3.1.4 0 .6-.4.6-.8V23l-1.2-7.6 5.2-5.4c.2-.2.4-.4.4-.7zM.1 9.7c0-.1-.1-.3-.1-.4 0 .1 0 .3.1.4zM.4 10l-.3-.3.3.3z"/><path class="gst1" d="M19.6 23.2v-.3l-1.2-7.6 5.2-5.4c.2-.1.4-.3.4-.6 0-.2-.1-.4-.3-.5-.2-.1-.4-.2-.5-.2L16 7.5l-1.5-3.1L12.7.6l-.1-.1c-.1-.1-.1-.2-.2-.3-.1-.1-.2-.2-.4-.2-.3 0-.6.3-.7.6L8 7.5.8 8.6c-.4.1-.8.2-.8.7 0 .1.1.3.1.4l.3.3.6.7 4.6 4.7L4.4 23v.3c0 .4.2.8.6.8.2 0 .4-.1.6-.2l6.3-3.5.2-.1 6.5 3.6c.1.1.2.1.3.1.1 0 .2 0 .3.1.3-.1.4-.5.4-.9zm-6.9-4.3l-.7-.4-.7.4-5.2 2.9 1-6.2.1-.8-.5-.5-4.4-4.4 6-.9.8-.1.3-.7L12 2.6l2.6 5.5.3.7.8.2 5.9.9-4.3 4.4-.5.5.1.7 1 6.2-5.2-2.8z"/></symbol><symbol viewBox="0 0 29 29" id="ico-map"><defs/><path id="hパス_22926" data-name="パス 22926" class="hcls-1" d="M2206.819-116.119v-.561a.935.935 0 01.906-.962.935.935 0 01.906.961v.562a.935.935 0 01-.906.962.935.935 0 01-.906-.962zm24.251-1.692a.5.5 0 01-.48-.51v-1.279a.5.5 0 00-.48-.51h-.943a.5.5 0 00-.48.51v1.282a.5.5 0 01-.481.51h-3.782a.5.5 0 01-.481-.51v-3.46a.5.5 0 00-.48-.51h-6.5a.5.5 0 01-.48-.51v-2.3a.5.5 0 01.48-.51h9.064a.5.5 0 00.48-.51v-7.38a.5.5 0 01.48-.51h5.807a.5.5 0 01.48.51v15.184a.5.5 0 01-.48.51zm-13.24 0a1.391 1.391 0 01-1.348-1.431 1.391 1.391 0 011.348-1.431h3.241a1.391 1.391 0 011.348 1.431 1.391 1.391 0 01-1.348 1.431zm-7.085 0a.5.5 0 01-.481-.51v-3.827a.5.5 0 00-.48-.51h-.774a.5.5 0 01-.48-.51v-1.937a.5.5 0 01.48-.51h5.549a.5.5 0 01.48.51v6.784a.5.5 0 01-.48.51zm16.328-17.676a.5.5 0 01-.481-.51v-3.674a.5.5 0 01.481-.51h.157a.5.5 0 00.481-.51v-1.956a.5.5 0 01.48-.51h6.147a.5.5 0 01.48.51v5.28a.5.5 0 01-.48.51h-4.938a.5.5 0 00-.481.51v.35a.5.5 0 01-.48.51z" transform="translate(-2206.319 143.658)"/></symbol><symbol viewBox="0 0 20 20" id="ico-open-accordion"><defs><clipPath id="iclip-path"><path class="icls-1" d="M0 0h20v20H0z"/></clipPath></defs><g id="i開く" class="icls-2"><g id="i長方形_2457" data-name="長方形 2457" class="icls-3"><rect class="icls-5" width="20" height="20" rx="3"/><rect class="icls-1" x=".5" y=".5" width="19" height="19" rx="2.5"/></g><path id="i長方形_2456" data-name="長方形 2456" class="icls-4" transform="translate(4 9)" d="M0 0h12v2H0z"/><path id="i長方形_2458" data-name="長方形 2458" class="icls-4" transform="rotate(90 3.5 7.5)" d="M0 0h12v2H0z"/></g></symbol><symbol viewBox="0 0 20 20" id="ico-recruit"><defs/><g id="jアイコン"><path id="j前面オブジェクトで型抜き_1" data-name="前面オブジェクトで型抜き 1" class="jcls-1" d="M2135-4578h-12a4 4 0 01-4-4v-12a4 4 0 014-4h12a4 4 0 014 4v12a4 4 0 01-4 4zm-8.812-5.2v2.1a.1.1 0 00.1.094h3.881a.1.1 0 00.1-.094v-10.494h5.628a.1.1 0 00.1-.1v-2.2a.1.1 0 00-.1-.095h-1.1l-.155-.942a.1.1 0 00-.1-.081h-2.109a.106.106 0 00-.077.034.089.089 0 00-.023.077l.164.912h-2.222v-.928a.1.1 0 00-.1-.095h-2.307a.1.1 0 00-.1.095v.928h-5.668a.1.1 0 00-.1.095v2.2a.1.1 0 00.1.1h5.658v8.186h-1.139l.263-.126a.1.1 0 00.055-.084v-2.594a.1.1 0 00-.05-.082.1.1 0 00-.052-.014.1.1 0 00-.048.012l-4.736 2.349a.1.1 0 00-.054.084v2.5a.092.092 0 00.048.081.107.107 0 00.054.014.091.091 0 00.046-.011l4.036-1.924zm4.594-7.669a.1.1 0 00-.082.037.09.09 0 00-.017.082l.435 1.548a.1.1 0 000 .055l2.24 7.874a.1.1 0 00.1.07h2.445a.1.1 0 00.081-.038.084.084 0 00.017-.083l-1.663-5.39 1.576-1.312a.094.094 0 00.044-.079v-2.608a.094.094 0 00-.059-.086.1.1 0 00-.042-.009.1.1 0 00-.067.023l-2.171 1.734-.523-1.748a.1.1 0 00-.1-.069zm-8.327-.139a.109.109 0 00-.06.019.1.1 0 00-.043.078v2.319a.1.1 0 00.071.09l2.428.743a.107.107 0 00.044.025l1.913.575a.1.1 0 00.032 0 .117.117 0 00.06-.017.1.1 0 00.042-.077v-2.334a.1.1 0 00-.07-.091l-4.385-1.328a.093.093 0 00-.033.006z" transform="translate(-2119 4598)"/></g></symbol><symbol viewBox="0 0 22 22" id="ico-search"><defs/><path id="kicon_search" class="kcls-1" d="M19.474 20.8a9.389 9.389 0 111.326-1.326l5.345 5.345-1.328 1.328zM8.22 8.22a7.52 7.52 0 105.312-2.2 7.52 7.52 0 00-5.312 2.2z" transform="translate(-4.147 -4.147)"/></symbol><symbol viewBox="0 0 21 21" id="ico-soku"><defs/><path id="lパス_10569" data-name="パス 10569" class="lcls-1" d="M-689.8-2507h-14.4a2.8 2.8 0 01-2.8-2.8v-14.4a2.8 2.8 0 012.8-2.8h14.4a2.8 2.8 0 012.8 2.8v14.4a2.8 2.8 0 01-2.8 2.8zm-9.475-3.1l.208 1.1 2.081-.293-1.279-5.977-1.972.174.531 2.676-2.3.26v-3.727h4.961V-2525h-7.17v13.029l-.783.086.266 2.567 5.458-.784zM-689-2525l-7.061.038V-2509h2.123v-13.684h2.9v8.205h-1.744v2.579H-689v-13.1zm-10.251 7.561h-2.715v-2.216h2.715v2.217zm0-3.8h-2.715v-2.216h2.715v2.215z" transform="translate(707.5 2527.5)"/></symbol><symbol viewBox="0 0 16 16" id="ico-star"><defs/><path id="mIcon" class="mcls-1" d="M15.417 5.513L10.183 5.5 8.533.415A.565.565 0 007.975 0a.578.578 0 00-.549.425L5.881 5.5l-5.3.014a.578.578 0 00-.553.42.617.617 0 00.208.682l4.145 3.2L2.757 15.2a.618.618 0 00.214.68.569.569 0 00.343.12.559.559 0 00.338-.116l4.37-3.227 4.326 3.225a.552.552 0 00.683 0 .618.618 0 00.214-.679l-1.628-5.385 4.144-3.2a.619.619 0 00.208-.682.578.578 0 00-.552-.423z"/></symbol><symbol viewBox="0 0 22.293 28" id="ico-train"><defs/><path id="nパス_22927" data-name="パス 22927" class="ncls-1" d="M23180.807 23243l-.824-1.105h-12.883l-.83 1.105h-2.76l3.742-4.336h.633v-.037h11.322v.037h.613l3.74 4.336zm-12.918-2.172h11.291l-.848-1.131h-9.59zm-1.678-3.213a3.657 3.657 0 01-3.816-3.461v-14.143c0-2.172 2.5-5.012 11.148-5.012s11.145 2.84 11.145 5.012v14.143a3.652 3.652 0 01-3.816 3.461zm11.895-4.111a1.218 1.218 0 101.213-1.1 1.163 1.163 0 00-1.214 1.096zm-11.553 0a1.218 1.218 0 101.215-1.1 1.161 1.161 0 00-1.215 1.096zm7.84-5.416h6.76v-5.369h-6.76zm-8.174 0h6.471v-5.369h-6.471zm2.314-9.092a.923.923 0 00.967.879h8.084a.883.883 0 100-1.758h-8.084a.923.923 0 00-.967.883z" transform="translate(-23162.395 -23215)"/></symbol><symbol viewBox="0 0 59.482 17.824" id="logo"><defs/><path id="oパス_1615" data-name="パス 1615" class="ocls-1" d="M14868.441 24473.824c-.221 0-.72 0-1.479-.021a.156.156 0 01-.092-.037.092.092 0 01-.038-.088l.224-3.348a.122.122 0 01.109-.111 4.818 4.818 0 00.869-.053c.516-.092.85-.537.961-1.275a17.725 17.725 0 00.182-1.811c.039-1.4.059-2.123.059-2.217a1.085 1.085 0 00-.24-.738.785.785 0 00-.574-.164c-.167 0-.4 0-.719.014a.12.12 0 00-.111.094c-.129.592-.221 1.053-.314 1.422a55.264 55.264 0 01-2.365 8.26.129.129 0 01-.107.074l-3.807-.021a.107.107 0 01-.094-.053.126.126 0 01-.018-.111c.813-2.125 1.4-3.785 1.757-4.969a68.93 68.93 0 001.216-4.527c.02-.037 0-.057-.016-.092a.144.144 0 00-.094-.037l-2-.039a.127.127 0 01-.093-.035.1.1 0 01-.037-.092l.24-3.529a.117.117 0 01.109-.105l2.57-.043a.112.112 0 00.109-.094c.186-1.105.332-2.25.461-3.355a.108.108 0 01.113-.113h3.547a.146.146 0 01.089.037c.021.018.021.057.021.09a80.892 80.892 0 01-.52 3.289.086.086 0 00.02.092.134.134 0 00.094.039h1.625a3.148 3.148 0 011.681.332 2.578 2.578 0 01.923 1.236c.279.756.318 2.586.131 5.43a21.193 21.193 0 01-.647 4.344 2.9 2.9 0 01-2.214 2.219 8.839 8.839 0 01-1.5.109zm-21.926-.041a.153.153 0 01-.094-.033.1.1 0 01-.037-.094l.24-3.656a.118.118 0 01.113-.111l5.832.018a6.817 6.817 0 002.7-.369 1.391 1.391 0 00.646-.609 1.814 1.814 0 00.276-.867 1.362 1.362 0 00-.519-1.311 1.693 1.693 0 00-1.014-.279 4.968 4.968 0 00-2.184.518 5.187 5.187 0 00-1.824 1.533.142.142 0 01-.094.033l-3.9-.014a.1.1 0 01-.091-.055.127.127 0 01-.019-.115l1.994-6.441a.125.125 0 00-.018-.113.116.116 0 00-.092-.059l-2.828.023a.139.139 0 01-.092-.041.1.1 0 01-.038-.09l.22-3.455a.124.124 0 01.113-.111l3.713-.074a.113.113 0 00.109-.09l.371-1.625a.109.109 0 01.109-.092l3.9.014a.1.1 0 01.094.057c.018.037.037.074.018.111l-.424 1.457a.122.122 0 00.018.113.094.094 0 00.092.055l6.779-.016a.157.157 0 01.111.051.114.114 0 01.035.1l-.236 3.471a.121.121 0 01-.111.111l-7.76.076a.1.1 0 00-.111.072l-.665 2.254a.107.107 0 00.038.127.088.088 0 00.072.023c.037 0 .057 0 .076-.023a5.9 5.9 0 013.546-1.014 4.318 4.318 0 014.007 1.85 5.267 5.267 0 01.686 3.158 6.182 6.182 0 01-.943 2.994 5.357 5.357 0 01-3.842 2.359 20.46 20.46 0 01-3.049.2zm32.141-.018l.26-3.451h3.307l-.26 3.451zm-35.208-.016a5.538 5.538 0 01-3.529-3.932 17.39 17.39 0 01-.406-4.824.279.279 0 00-.071-.166.24.24 0 00-.168-.076h-.5a.234.234 0 00-.219.205c-.15 1.441-.3 2.584-.447 3.4a6.677 6.677 0 01-2.361 4.416 10.842 10.842 0 01-1.664.945h-.037c-.02 0-.02-.02-.037-.02a.143.143 0 01-.035-.076l.035-.607a.257.257 0 00-.129-.223.229.229 0 00-.113-.02.208.208 0 00-.146.057 3.311 3.311 0 01-1.107.648 4.574 4.574 0 01-.85.125.08.08 0 01-.074-.072c-.073-.941-.146-1.773-.186-2.494a.062.062 0 01.02-.055.073.073 0 01.055-.018h.352a.218.218 0 00.22-.205l.114-1.5a.261.261 0 00-.057-.164.2.2 0 00-.164-.076l-5.581-.018a.072.072 0 01-.056-.018.075.075 0 01-.018-.057l.943-12.857a.07.07 0 01.072-.07l7.977.029a.066.066 0 01.061.023.077.077 0 01.016.055l-.182 2.625a.081.081 0 01-.074.072h-1.166a.225.225 0 00-.223.2l-.035.443a.265.265 0 00.055.166.212.212 0 00.168.078h1.107a.081.081 0 01.055.014.071.071 0 01.021.061l-.168 2.285a.08.08 0 01-.073.074h-1.165a.227.227 0 00-.225.2l-.035.48a.248.248 0 00.059.168.2.2 0 00.164.072h1.107a.064.064 0 01.057.02.069.069 0 01.018.057l-.168 2.256a.075.075 0 01-.074.068h-1.162a.223.223 0 00-.221.205l-.035.482a.268.268 0 00.053.166.207.207 0 00.168.07h1.271a.064.064 0 01.057.021.062.062 0 01.02.055l-.167 2.291a.211.211 0 00.167.24h.057a.221.221 0 00.2-.131 4.224 4.224 0 00.355-1.35l.83-11.412a.082.082 0 01.074-.078l8.443.016a.058.058 0 01.053.023.066.066 0 01.02.055l-.465 6.355a2.326 2.326 0 01-.57 1.535 3.11 3.11 0 01-1.016.627.181.181 0 00-.129.186 10.881 10.881 0 00.072 2.678 4.266 4.266 0 001.166 2.088.074.074 0 01.016.053l-.295 4.049c0 .018-.018.037-.037.053 0 .02-.016.02-.037.02zm-13.948-8.133l-.037.467a.254.254 0 00.055.166.2.2 0 00.169.07h.647a.221.221 0 00.221-.2l.035-.459a.277.277 0 00-.053-.168.211.211 0 00-.168-.07h-.648a.222.222 0 00-.221.195zm.24-3.3l-.037.482a.259.259 0 00.057.166.2.2 0 00.168.072h.645a.219.219 0 00.221-.2l.039-.482a.261.261 0 00-.057-.164.2.2 0 00-.168-.074h-.645a.222.222 0 00-.223.198zm9.33-2.883l-.15 1.941a.247.247 0 00.06.164.184.184 0 00.165.074h1.457a.222.222 0 00.223-.2l.148-1.937a.257.257 0 00-.057-.164.193.193 0 00-.164-.078h-1.461a.223.223 0 00-.221.199zm-9.092-.461l-.033.443a.251.251 0 00.053.164.2.2 0 00.168.078h.646a.224.224 0 00.223-.205l.037-.443a.272.272 0 00-.059-.166.2.2 0 00-.164-.074h-.646a.223.223 0 00-.224.202zm-.089 14.725a.144.144 0 01-.149-.133 71.852 71.852 0 01-.168-3.77.211.211 0 01.038-.107.289.289 0 01.11-.035h1.129a.142.142 0 01.148.129c.016.2.037.424.037.666.053.832.107 1.863.2 3.082a.305.305 0 01-.039.111.151.151 0 01-.111.057zm-1.774 0a.158.158 0 01-.113-.039.292.292 0 01-.035-.109c0-.406 0-1.035.019-1.848 0-.83.017-1.48.017-1.92a.149.149 0 01.15-.15h1.09a.161.161 0 01.146.15v.57l.019 1.461c0 .756.021 1.346.021 1.736a.2.2 0 01-.039.109.241.241 0 01-.108.039zm-1.977 0a.127.127 0 01-.111-.057c-.035-.02-.035-.076-.035-.111.129-.9.275-2.162.461-3.768a.158.158 0 01.148-.131h1.107a.1.1 0 01.09.057.123.123 0 01.041.107c-.058.557-.111 1.186-.187 1.941-.057.627-.129 1.238-.184 1.828a.161.161 0 01-.148.133zm-1.848 0h-.018l-.147-.018a.116.116 0 01-.112-.059.235.235 0 01-.018-.107c.295-1.238.553-2.5.795-3.77a.161.161 0 01.147-.113h1.106a.147.147 0 01.115.057c.035.035.035.074.035.133a63.82 63.82 0 01-.686 3.764.16.16 0 01-.145.113zm55.068-4.342l.277-12.691 3.842.018-1.568 12.674zm-5.209-.02a.134.134 0 01-.094-.037.105.105 0 01-.033-.092c.033-.461.051-.812.071-1.055a34.114 34.114 0 00.073-5.609 6.88 6.88 0 00-.666-2.371c-.129-.254-.3-.553-.516-.922a.109.109 0 010-.109.107.107 0 01.093-.061h3.511a.111.111 0 01.092.061 7.893 7.893 0 011.086 3.047 25.537 25.537 0 010 4.857c-.014.186-.072.9-.164 2.18a.116.116 0 01-.109.111z" transform="translate(-14823.996 -24456.001)"/></symbol></svg>